<?xml version="1.0" encoding="iso-8859-1"?>
<!-- Uploaded to: SVG Repo, www.svgrepo.com, Generator: SVG Repo Mixer Tools -->
<svg height="42px" width="42px" version="1.1" id="Layer_1" xmlns="http://www.w3.org/2000/svg" xmlns:xlink="http://www.w3.org/1999/xlink" 
	 viewBox="0 0 503.467 503.467" xml:space="preserve">
<g transform="translate(1 3)">
	<path style="fill:#80D6FA;" d="M481.133,52.467V342.6c0,18.773-15.36,34.133-34.133,34.133H54.467
		c-18.773,0-34.133-15.36-34.133-34.133V52.467H481.133z M267.8,241.053c-5.12-0.853-8.533-0.853-8.533-0.853
		S262.68,241.053,267.8,241.053L267.8,241.053z"/>
	<polygon style="fill:#AAB1BA;" points="498.2,18.333 498.2,52.467 481.133,52.467 20.333,52.467 3.267,52.467 3.267,18.333 
		250.733,18.333 	"/>
</g>
<path style="fill:#51565F;" d="M311.467,503.467c-0.853,0-2.56,0-3.413-0.853L273.92,468.48c-1.707-1.707-1.707-4.267,0-5.973
	c1.707-1.707,4.267-1.707,5.973,0l34.133,34.133c1.707,1.707,1.707,4.267,0,5.973C314.027,503.467,312.32,503.467,311.467,503.467z
	 M192,503.467c-0.853,0-2.56,0-3.413-0.853c-1.707-1.707-1.707-4.267,0-5.973l58.88-58.88v-23.893c0-2.56,1.707-4.267,4.267-4.267
	c2.56,0,4.267,1.707,4.267,4.267v25.6c0,0.853-0.853,2.56-0.853,3.413l-59.733,59.733C194.56,503.467,192.853,503.467,192,503.467z
	 M448,384H55.467c-21.333,0-38.4-17.067-38.4-38.4v-256c0-2.56,1.707-4.267,4.267-4.267S25.6,87.04,25.6,89.6v256
	c0,16.213,13.653,29.867,29.867,29.867H448c16.213,0,29.867-13.653,29.867-29.867V55.467c0-2.56,1.707-4.267,4.267-4.267h12.8V25.6
	H8.533v25.6H448c2.56,0,4.267,1.707,4.267,4.267c0,2.56-1.707,4.267-4.267,4.267H4.267C1.707,59.733,0,58.027,0,55.467V21.333
	c0-2.56,1.707-4.267,4.267-4.267h243.2v-12.8c0-2.56,1.707-4.267,4.267-4.267C254.293,0,256,1.707,256,4.267v12.8h243.2
	c2.56,0,4.267,1.707,4.267,4.267v34.133c0,2.56-1.707,4.267-4.267,4.267h-12.8V345.6C486.4,366.933,469.333,384,448,384z
	 M328.533,264.533c-11.947,0-21.333-9.387-21.333-21.333v-34.133c0-11.947,9.387-21.333,21.333-21.333s21.333,9.387,21.333,21.333
	c0,2.56-1.707,4.267-4.267,4.267s-4.267-1.707-4.267-4.267c0-6.827-5.973-12.8-12.8-12.8s-12.8,5.973-12.8,12.8V243.2
	c0,6.827,5.973,12.8,12.8,12.8s12.8-5.973,12.8-12.8c0-2.56,1.707-4.267,4.267-4.267s4.267,1.707,4.267,4.267
	C349.867,255.147,340.48,264.533,328.533,264.533z M277.333,264.533c-2.56,0-4.267-1.707-4.267-4.267V204.8l-17.92,23.893
	c-1.707,2.56-5.12,2.56-6.827,0L230.4,204.8v55.467c0,2.56-1.707,4.267-4.267,4.267s-4.267-1.707-4.267-4.267V192
	c0-1.707,0.853-3.413,2.56-4.267c1.707-0.853,3.413,0,5.12,1.707l22.187,29.867l22.187-29.867c0.853-1.707,3.413-1.707,5.12-1.707
	c1.707,0.853,2.56,2.56,2.56,4.267v68.267C281.6,262.827,279.893,264.533,277.333,264.533z M123.733,264.533H89.6
	c-2.56,0-4.267-1.707-4.267-4.267V192c0-2.56,1.707-4.267,4.267-4.267h34.133c2.56,0,4.267,1.707,4.267,4.267
	c0,2.56-1.707,4.267-4.267,4.267H93.867v25.6h29.867c2.56,0,4.267,1.707,4.267,4.267s-1.707,4.267-4.267,4.267H93.867V256h29.867
	c2.56,0,4.267,1.707,4.267,4.267C128,262.827,126.293,264.533,123.733,264.533z M192,247.467h-34.133
	c-2.56,0-4.267-1.707-4.267-4.267s1.707-4.267,4.267-4.267H192c2.56,0,4.267,1.707,4.267,4.267S194.56,247.467,192,247.467z
	 M413.867,230.4h-34.133c-1.707,0-3.413-0.853-4.267-2.56c-0.853-1.707,0-3.413,1.707-5.12l17.067-12.8
	c6.827-4.267,15.36-12.8,15.36-17.92c0-6.827-5.973-12.8-12.8-12.8S384,185.173,384,192c0,2.56-1.707,4.267-4.267,4.267
	c-2.56,0-4.267-1.707-4.267-4.267c0-11.947,9.387-21.333,21.333-21.333s21.333,9.387,21.333,21.333
	c0,11.093-15.36,23.04-18.773,24.747l-6.827,5.12h21.333c2.56,0,4.267,1.707,4.267,4.267S416.427,230.4,413.867,230.4z M192,213.333
	h-34.133c-2.56,0-4.267-1.707-4.267-4.267c0-2.56,1.707-4.267,4.267-4.267H192c2.56,0,4.267,1.707,4.267,4.267
	C196.267,211.627,194.56,213.333,192,213.333z"/>
</svg>