<!DOCTYPE svg PUBLIC "-//W3C//DTD SVG 1.1//EN" "http://www.w3.org/Graphics/SVG/1.1/DTD/svg11.dtd">

<!-- Uploaded to: SVG Repo, www.svgrepo.com, Transformed by: SVG Repo Mixer Tools -->
<svg width="42px" height="42px" viewBox="0 0 24 24" xmlns="http://www.w3.org/2000/svg" fill="#000000" stroke="#000000" stroke-width="0.072">

<g id="SVGRepo_bgCarrier" stroke-width="0"/>

<g id="SVGRepo_tracerCarrier" stroke-linecap="round" stroke-linejoin="round"/>

<g id="SVGRepo_iconCarrier"> <defs> <style>.cls-1{fill:#96ccee;}.cls-1,.cls-3{fill-rule:evenodd;}.cls-2{fill:#0ec0fb;}.cls-3{fill:#53a7ca;}</style> </defs> <g id="Rank"> <path class="cls-1" d="M5.14,15.79a.55.55,0,0,0-.55-.55h-2a.55.55,0,0,0-.55.55v4.45H5.14Z"/> <path class="cls-1" d="M10.76,11.36a.55.55,0,0,0-.55-.55h-2a.55.55,0,0,0-.55.55v8.88h3.14Z"/> <path class="cls-1" d="M16.38,9.15a.55.55,0,0,0-.55-.55h-2a.55.55,0,0,0-.55.55V20.24h3.14Z"/> <path class="cls-1" d="M22,6.93a.55.55,0,0,0-.55-.55h-2a.55.55,0,0,0-.55.55V20.24H22Z"/> <path class="cls-2" d="M4.66,13.18a1.09,1.09,0,1,1-1.09-1.09,1.08,1.08,0,0,1,1.09,1.09"/> <path class="cls-2" d="M10.27,8.73A1.08,1.08,0,1,1,9.19,7.64a1.08,1.08,0,0,1,1.08,1.09"/> <path class="cls-2" d="M15.89,6.51a1.08,1.08,0,1,1-1.08-1.08,1.08,1.08,0,0,1,1.08,1.08"/> <path class="cls-2" d="M21.51,4.34a1.09,1.09,0,1,1-1.08-1.08,1.08,1.08,0,0,1,1.08,1.08"/> <path class="cls-3" d="M5.14,15.79a.54.54,0,0,0-.55-.55H3.92v5H5.14Z"/> <path class="cls-3" d="M10.76,11.36a.55.55,0,0,0-.55-.55H9.54v9.43h1.22Z"/> <path class="cls-3" d="M16.38,9.15a.55.55,0,0,0-.16-.39.51.51,0,0,0-.39-.16h-.67V20.24h1.22Z"/> <path class="cls-3" d="M22,6.93a.55.55,0,0,0-.55-.55h-.67V20.24H22Z"/> <path class="cls-3" d="M2,20.74H22a.5.5,0,0,0,.5-.5.5.5,0,0,0-.5-.5H2a.5.5,0,0,0-.5.5A.5.5,0,0,0,2,20.74Z"/> </g> </g>

</svg>